<svg width="128" height="128" viewBox="0 0 128 128" fill="none" xmlns="http://www.w3.org/2000/svg">
<rect width="127.5" height="127.5" fill="#0C47B7"/>
<path d="M67.0615 98.1194L68.4912 102.999L63.6104 101.571L58.7305 102.999L60.1592 98.1194L58.7305 93.2385L63.6104 94.6682L68.4912 93.2385L67.0615 98.1194ZM49.8057 93.4963L51.2354 98.3772L46.3545 96.9475L41.4746 98.3772L42.9033 93.4963L41.4746 88.6155L46.3545 90.0452L51.2354 88.6155L49.8057 93.4963ZM84.3154 93.4963L85.7441 98.3772L80.8643 96.9475L75.9834 98.3772L77.4131 93.4963L75.9834 88.6155L80.8643 90.0452L85.7441 88.6155L84.3154 93.4963ZM37.1729 80.8645L38.6025 85.7454L33.7217 84.3157L28.8418 85.7454L30.2705 80.8645L28.8418 75.9846L33.7217 77.4133L38.6025 75.9846L37.1729 80.8645ZM96.9482 80.8645L98.377 85.7454L93.4971 84.3157L88.6162 85.7454L90.0459 80.8645L88.6162 75.9846L93.4971 77.4133L98.377 75.9846L96.9482 80.8645ZM32.5498 63.6096L33.9795 68.4895L29.0986 67.0608L24.2188 68.4895L25.6475 63.6096L24.2188 58.7288L29.0986 60.1584L33.9795 58.7288L32.5498 63.6096ZM101.571 63.6096L103 68.4895L98.1201 67.0608L93.2393 68.4895L94.6689 63.6096L93.2393 58.7288L98.1201 60.1584L103 58.7288L101.571 63.6096ZM37.1729 46.3538L38.6025 51.2346L33.7217 49.8049L28.8418 51.2346L30.2705 46.3538L28.8418 41.4739L33.7217 42.9036L38.6025 41.4739L37.1729 46.3538ZM96.9482 46.3538L98.377 51.2346L93.4971 49.8049L88.6162 51.2346L90.0459 46.3538L88.6162 41.4739L93.4971 42.9036L98.377 41.4739L96.9482 46.3538ZM49.8057 33.7229L51.2354 38.6038L46.3545 37.1741L41.4746 38.6038L42.9033 33.7229L41.4746 28.843L46.3545 30.2717L51.2354 28.843L49.8057 33.7229ZM84.3154 33.7229L85.7441 38.6038L80.8643 37.1741L75.9834 38.6038L77.4131 33.7229L75.9834 28.843L80.8643 30.2717L85.7441 28.843L84.3154 33.7229ZM67.0615 29.0999L68.4912 33.9797L63.6104 32.55L58.7305 33.9797L60.1592 29.0999L58.7305 24.219L63.6104 25.6487L68.4912 24.219L67.0615 29.0999Z" fill="#FED653"/>
</svg>
